<svg width="21" height="20" viewBox="0 0 21 20" fill="none" xmlns="http://www.w3.org/2000/svg">
<path d="M14.6667 7.64174C14.5106 7.48653 14.2994 7.39941 14.0792 7.39941C13.8591 7.39941 13.6478 7.48653 13.4917 7.64174L10.5 10.5917L7.55004 7.64174C7.3939 7.48653 7.18269 7.39941 6.96254 7.39941C6.74238 7.39941 6.53117 7.48653 6.37504 7.64174C6.29693 7.71921 6.23494 7.81138 6.19263 7.91293C6.15032 8.01448 6.12854 8.1234 6.12854 8.23341C6.12854 8.34342 6.15032 8.45234 6.19263 8.55389C6.23494 8.65544 6.29693 8.74761 6.37504 8.82507L9.90837 12.3584C9.98584 12.4365 10.078 12.4985 10.1796 12.5408C10.2811 12.5831 10.39 12.6049 10.5 12.6049C10.61 12.6049 10.719 12.5831 10.8205 12.5408C10.9221 12.4985 11.0142 12.4365 11.0917 12.3584L14.6667 8.82507C14.7448 8.74761 14.8068 8.65544 14.8491 8.55389C14.8914 8.45234 14.9132 8.34342 14.9132 8.23341C14.9132 8.1234 14.8914 8.01448 14.8491 7.91293C14.8068 7.81138 14.7448 7.71921 14.6667 7.64174Z" fill="black"/>
</svg>
